PathFileType	4	(X/Y/Z)	Kaydara	
DataRate	CameraRate	NumFrames	NumMarkers	Units	OrigDataRate	OrigDataStartFrame	OrigNumFrames	
240.00	240.00	4	72	mm	240.00	45	359	
Frame#	Time	Hips			RightUpLeg			RightLeg			RightFoot			RightFoot_End			LeftUpLeg			LeftLeg			LeftFoot			LeftFoot_End			Spine			Spine1			Spine2			Spine3			Neck			Head			Head_End			RightShoulder			RightArm			RightForeArm			RightHand			RightHandThumb1			RightHandThumb2			RightHandThumb3			RightHandThumb3_End			RightInHandIndex			RightHandIndex1			RightHandIndex2			RightHandIndex3			RightHandIndex3_End			RightInHandMiddle			RightHandMiddle1			RightHandMiddle2			RightHandMiddle3			RightHandMiddle3_End			RightInHandRing			RightHandRing1			RightHandRing2			RightHandRing3			RightHandRing3_End			RightInHandPinky			RightHandPinky1			RightHandPinky2			RightHandPinky3			RightHandPinky3_End			LeftShoulder			LeftArm			LeftForeArm			LeftHand			LeftHandThumb1			LeftHandThumb2			LeftHandThumb3			LeftHandThumb3_End			LeftInHandIndex			LeftHandIndex1			LeftHandIndex2			LeftHandIndex3			LeftHandIndex3_End			LeftInHandMiddle			LeftHandMiddle1			LeftHandMiddle2			LeftHandMiddle3			LeftHandMiddle3_End			LeftInHandRing			LeftHandRing1			LeftHandRing2			LeftHandRing3			LeftHandRing3_End			LeftInHandPinky			LeftHandPinky1			LeftHandPinky2			LeftHandPinky3			LeftHandPinky3_End			
		X1	Y1	Z1	X2	Y2	Z2	X3	Y3	Z3	X4	Y4	Z4	X5	Y5	Z5	X6	Y6	Z6	X7	Y7	Z7	X8	Y8	Z8	X9	Y9	Z9	X10	Y10	Z10	X11	Y11	Z11	X12	Y12	Z12	X13	Y13	Z13	X14	Y14	Z14	X15	Y15	Z15	X16	Y16	Z16	X17	Y17	Z17	X18	Y18	Z18	X19	Y19	Z19	X20	Y20	Z20	X21	Y21	Z21	X22	Y22	Z22	X23	Y23	Z23	X24	Y24	Z24	X25	Y25	Z25	X26	Y26	Z26	X27	Y27	Z27	X28	Y28	Z28	X29	Y29	Z29	X30	Y30	Z30	X31	Y31	Z31	X32	Y32	Z32	X33	Y33	Z33	X34	Y34	Z34	X35	Y35	Z35	X36	Y36	Z36	X37	Y37	Z37	X38	Y38	Z38	X39	Y39	Z39	X40	Y40	Z40	X41	Y41	Z41	X42	Y42	Z42	X43	Y43	Z43	X44	Y44	Z44	X45	Y45	Z45	X46	Y46	Z46	X47	Y47	Z47	X48	Y48	Z48	X49	Y49	Z49	X50	Y50	Z50	X51	Y51	Z51	X52	Y52	Z52	X53	Y53	Z53	X54	Y54	Z54	X55	Y55	Z55	X56	Y56	Z56	X57	Y57	Z57	X58	Y58	Z58	X59	Y59	Z59	X60	Y60	Z60	X61	Y61	Z61	X62	Y62	Z62	X63	Y63	Z63	X64	Y64	Z64	X65	Y65	Z65	X66	Y66	Z66	X67	Y67	Z67	X68	Y68	Z68	X69	Y69	Z69	X70	Y70	Z70	X71	Y71	Z71	X72	Y72	Z72	

45	0.183	3198.941	914.58397	126.699	3255.2948707259147	898.1709230641442	53.45661535127167	3160.7228901149056	501.20275885498285	-41.36720127897631	3142.327640318529	109.69007546260092	-116.86652332561376	2990.5556283091337	32.81406015646599	-29.724446604056705	3157.2339904318005	904.9665608587469	211.22298934537196	3066.3135461606253	503.1150484275962	286.4939900996207	2995.2231070017933	78.69622694214141	378.67304913050793	2873.510958773257	-3.644326346854442	256.42159947159894	3130.732822830627	1031.3858756073068	79.64005562705604	3067.910201950452	1087.4113072771759	31.030634609005556	2999.557107007853	1138.5782495572532	-23.32497216472417	2930.4582692760487	1175.7071731607548	-80.622276402952	2855.5573343747974	1215.913701918416	-140.16545260276462	2785.719016475376	1252.904887271988	-191.7672679166183	2646.3366635649727	1330.4633449388753	-197.69656277272506	2901.494443893903	1204.8835742628028	-144.8703410655644	2964.4648919413207	1199.466176490682	-264.2264770722481	3053.0149303037033	933.4654339774544	-308.7895394020699	3067.003040321432	794.3537040587455	-521.4545153666076	3073.855994831866	803.7281472889158	-551.900704184143	3056.0469931073258	805.613058888411	-580.8222680430129	3043.458516806058	803.8355290862781	-600.4618606129713	3032.8046913553944	799.7101077856382	-616.4056137122645	3076.4034374891316	793.339853761522	-553.4292533769399	3078.876194636132	781.0688276278191	-598.1302250323355	3066.781184881539	773.442322567808	-626.3933652941214	3051.6380647928313	772.6714476770402	-639.343080053934	3033.961717342624	774.7116329338949	-646.9442247589526	3075.1540239431733	785.4055473838491	-550.3745135258544	3076.894006835808	769.1448301798104	-592.3229960863816	3063.5058128250125	759.8168223003737	-622.6120933001481	3045.1449323923102	758.4040674536234	-637.9707265164734	3025.7594368473938	760.401733735674	-646.1590661898665	3074.3477743230987	780.0811869014756	-547.1101415121086	3075.6155761845516	760.793035583945	-581.9715777724723	3063.747749799153	751.6604856047569	-607.7413710399204	3045.9317307182187	749.7655409981451	-622.2212590741065	3027.6544751613765	751.3916435456221	-629.7617339860753	3072.247486003129	774.5514684629683	-541.7809724631	3072.5845768520653	753.3403952039331	-570.6004550990433	3062.764826336072	744.5481516077632	-590.1003351556403	3049.6166751372834	742.4504181887706	-600.1126912949745	3033.337907403839	743.4790709375519	-606.4761729020045	2859.2559992285715	1200.3763235120086	-94.69428652084322	2807.1522672674528	1128.6174238788678	7.568948884877895	2955.518710086358	971.7652481201236	-175.4192191617364	3061.227161349318	858.5165034248038	-401.73383849396663	3091.226041250465	869.5013713782565	-422.7056472074694	3131.4719260439642	861.6374971616713	-431.90414024540837	3158.5689403410506	852.9325636571351	-438.91390067532336	3180.362763031867	842.9137190109367	-445.2742821529469	3089.807316481507	859.9091089192102	-428.60173926285347	3133.6591596262315	845.8467918159205	-464.07718174647437	3168.643751758549	830.861908560142	-479.11225165097744	3190.2011720503206	822.413238781945	-479.9166319926279	3207.9144062671667	816.0053812161739	-474.8199582117676	3085.9633220307214	851.3703730807064	-428.5507943190664	3126.654601899293	833.0372913351755	-463.12767121500923	3164.1858830877595	815.5982543995916	-479.40007196963546	3189.885143356478	804.8833667429408	-480.3062704378498	3209.116422638933	797.6183057550802	-474.6983424679614	3082.085788774324	845.7254902014718	-427.71854155179403	3115.0623187631195	824.4797373945531	-458.3028222886169	3147.0529708310814	808.19679772002	-472.29340627979246	3171.4586564719652	797.286298926103	-473.06525805659703	3189.359268609263	790.1827676220678	-467.74392615866424	3076.6828413654853	839.3993050967229	-424.87276742498875	3103.4686262844475	816.1051389771159	-451.54734141927236	3127.8160501147777	801.4691819007215	-462.3159706443293	3145.0035533111045	792.7384089127048	-462.6687762057566	3160.507161210135	786.0011857963198	-457.8339759728926
46	0.188	3198.941	914.58397	126.699	3255.3022051880084	898.1849433869897	53.45620057773474	3160.730703182365	501.21511185116907	-41.36177233623643	3142.3076383803495	109.70130446975857	-116.85339747733873	2990.536360815633	32.828999013953286	-29.70679859709661	3157.226280573787	904.9507764755001	211.21997002116817	3066.294209911658	503.0993369161837	286.4767540670832	2995.2074787643014	78.6819208462253	378.6680024326319	2873.4941306086826	-3.6546336948223703	256.41501975697395	3130.734165396104	1031.393107122404	79.65535829272964	3067.9089580557848	1087.4104433758412	31.04110675676111	2999.5576543628545	1138.5709936876276	-23.321532989477994	2930.4706298582137	1175.7041404516463	-80.6297047356746	2855.5813108787706	1215.9148276644887	-140.18403126160183	2785.751409209873	1252.9074371583372	-191.79556880176443	2646.3622631690687	1330.452932193563	-197.73457191276975	2901.518427759651	1204.8852553993447	-144.88044732100443	2964.5375899186374	1199.484563828509	-264.2071525756518	3053.090488748979	933.4733528174182	-308.8767260797764	3067.1026732557825	794.5126936490665	-521.5872694467785	3074.200077261505	804.1547556521409	-552.2033689455629	3056.5021061862735	806.1642651101245	-581.4750432045591	3043.966298832964	804.4442760232477	-601.3783281831006	3033.3352881902815	800.3418187331814	-617.5589114510078	3076.690858445108	793.6952889563654	-553.8105214461245	3079.3189374021204	781.5768676193585	-599.0006577124869	3067.2824027996294	774.0082058783719	-627.6481694251798	3052.1564352438404	773.2587198979396	-640.8068304045618	3034.481332475594	775.306778446603	-648.5606724533686	3075.366625324704	785.6738737429118	-550.7948998307401	3077.217649416791	769.5148990120459	-593.2416462262312	3063.8828256497954	760.2379611252659	-623.953798269892	3045.537629593911	758.845228788443	-639.5662592149356	3026.1510603235606	760.8486997265903	-647.9225249625083	3074.5039254528983	780.2844066495267	-547.5454626082715	3075.8233321350604	761.0318859963699	-582.8657673553001	3063.9911765213947	751.9313702944482	-609.0072239619501	3046.184524787071	750.0491114146279	-623.7335041350368	3027.903530603041	751.6775301616755	-631.4326073088658	3072.3311328149953	774.6726273242055	-542.2210623653032	3072.672160751037	753.4448015387596	-571.4637783395725	3062.8638216129716	744.6585821945943	-591.2638396305351	3049.714207359904	742.5606068101567	-601.4571570336874	3033.427351783147	743.5858472039299	-607.961872945179	2859.2720571646655	1200.37401727885	-94.71394714422541	2807.157422319393	1128.635476902921	7.544696475945454	2955.7144552755435	972.143204305592	-176.05112590396504	3061.4863684543707	859.0828834730257	-402.45285525147534	3091.5115998343745	870.0433576519911	-423.4038635618769	3131.775690764931	862.1338812065807	-432.5856562080245	3158.8814567134655	853.3997568573516	-439.588765222959	3180.6792147069223	843.3587738572284	-445.9478583061727	3090.0811166665376	860.4607089193138	-429.3168780036039	3133.941101970015	846.373845791609	-464.80057803356397	3168.9318660393124	831.3577235924977	-479.83612035636463	3190.495968740123	822.8816751651747	-480.63320339246616	3208.2166529376946	816.4457886600044	-475.52536983361495	3086.2261798534	851.9291369739036	-429.27893341790184	3126.919481156605	833.575992549962	-463.8708978683313	3164.4560281578965	816.1038743515002	-480.14549600694716	3190.1626445506186	805.3564380254387	-481.04369773887294	3209.40173360359	798.0609426779715	-475.42395087540336	3082.3406780473215	846.2900973387602	-428.45574148448327	3115.3120181609997	825.0318909734431	-459.0616676868507	3147.3057541438307	808.7211782520465	-473.0558607892234	3171.717735770888	797.779845745697	-473.82089913257164	3189.6253124159684	790.6479657676019	-468.48888082993653	3076.9285409247236	839.9701313752163	-425.61948191551465	3103.7038041417613	816.6688924939536	-452.3200697056401	3128.0513725110472	802.0124003826961	-463.0941376046621	3145.242344099994	793.2599620634477	-463.4432068126765	3160.7514729106792	786.4981010495834	-458.5996489326573
47	0.192	3198.941	914.58397	126.699	3255.31021327467	898.1996561678826	53.45615794639486	3160.735835766296	501.2290855536343	-41.35647743230216	3142.2876909699594	109.71468231121669	-116.84338660855813	2990.516919430615	32.84589324407621	-29.692838278884217	3157.21792063873	904.9343051807763	211.21655010587858	3066.275133278219	503.08334612308147	286.4624974857746	2995.189839947771	78.66771719355792	378.66575746998785	2873.4756203896604	-3.6647615288633317	256.41086436699584	3130.7353723150122	1031.4002809196825	79.67076736061897	3067.9080289310245	1087.4111142824925	31.052854732603198	2999.558547117745	1138.5668232501873	-23.31547211999933	2930.4825156532065	1175.705225019734	-80.632853094112	2855.603938668566	1215.9211078331384	-140.1965325393094	2785.781685781354	1252.9160483081082	-191.81610159274013	2646.3861342565365	1330.4490443589605	-197.7669087894249	2901.5406651630205	1204.8916187095615	-144.8854960329742	2964.6011776633254	1199.5020820948316	-264.18276060626005	3053.167753356192	933.4861892808228	-308.9543833165946	3067.143163321033	794.6238563660556	-521.4388847845923	3074.4925841357835	804.5301761940286	-552.2365619410359	3056.9050458970037	806.6549628165228	-581.8699159610774	3044.4201064376934	804.9855471357721	-602.0437462291627	3033.809224655056	800.8998381024403	-618.465842788377	3076.9229131242887	793.9978984563174	-553.9188626686323	3079.7048792939795	782.021036034448	-599.6071545288152	3067.7232683672223	774.5005096768724	-628.6464126735841	3052.612083151447	773.7665129553718	-642.0195015729303	3034.936153594454	775.8176533393256	-649.9311833800886	3075.520023186225	785.8883670589227	-550.9388248663984	3077.4786145472826	769.8198165910801	-593.8906924454207	3064.1927806321064	760.5832558623757	-625.033452752993	3045.860167232743	759.2033805791739	-640.9061180572892	3026.470139866696	761.2073901019425	-649.435821007434	3074.5982151555645	780.4333785714929	-547.7015783993728	3075.963854862341	761.2060301245879	-583.4844641460797	3064.163041545989	752.1281444640313	-610.0036519788049	3046.3624936354727	750.2516150226749	-624.9822009967455	3028.075390626701	751.8773773484234	-632.8449845909544	3072.3497658315346	774.7392606749409	-542.3786611318941	3072.6879156051828	753.4849660949524	-572.0459343633031	3062.8867484323027	744.697154732729	-592.150215359174	3049.7329166371924	742.5938217891382	-602.5283834419283	3033.435658051255	743.6112210382427	-609.1785807560507	2859.2877764178893	1200.3766446148618	-94.72770451408896	2807.185962060334	1128.704324854362	7.545498655726311	2955.9993242517958	972.6451620750532	-176.75903045404334	3061.818766614548	859.7904865534215	-403.25573480917234	3091.8710528790084	870.7264222159937	-424.1851559558031	3132.149882430573	862.7667729168066	-433.35023292706325	3159.2611629070525	854.0001616447893	-440.3470792192908	3181.059454455979	843.9341954934004	-446.7055493843156	3090.4260744886874	861.1533783553017	-430.1165012790643	3134.2874162543008	847.0395370152451	-465.6106735577741	3169.2788544827267	831.9882912403014	-480.6479628826949	3190.8469921336805	823.4815266076987	-481.4378978701069	3208.5734544519123	817.0142267140731	-476.3185939590405	3086.5581587140573	852.6286426781979	-430.0925529454596	3127.2457615547314	834.2528866862899	-464.70230382440775	3164.7813275360086	816.743410440752	-480.9806142474556	3190.491987122842	805.9593805541077	-481.87105865948575	3209.7369989461213	798.6297388533442	-476.23918212299725	3082.6634238957013	846.9952981226936	-429.2790747640869	3115.6215612961423	825.7222867225834	-459.9096486678091	3147.612695564401	809.3800377814745	-473.90889342935185	3172.0276494278	798.4039515000966	-474.66741423453595	3189.9403557119836	791.2402236669056	-469.3244481575915	3077.240827192612	840.6812849996271	-426.4529725815265	3103.997438297128	817.37072240543	-453.18274438026293	3128.3402570851313	802.6906372563618	-463.96358374986283	3145.5321079453806	793.9136526080239	-464.30921825551206	3161.0450371418406	787.1240418029483	-459.45672061138714
48	0.196	3198.941	914.58397	126.699	3255.3193268513432	898.2149739047067	53.456810641488964	3160.738731100618	501.2446933073806	-41.351419239877636	3142.268646675618	109.73027183061303	-116.83691394444683	2990.4982365731717	32.86480353648793	-29.682843535972673	3157.208490465049	904.9173081376512	211.21255365930443	3066.2565952175537	503.06741729441336	286.4529230660478	2995.1690138485674	78.65420771371102	378.6679997721844	2873.4542351572354	-3.674339595452441	256.41098537843953	3130.736372275865	1031.407071443897	79.68560997577285	3067.9077739858526	1087.4134802062458	31.06519809605862	2999.5606410984296	1138.5665427321578	-23.307500326076873	2930.4951668573026	1175.7117210260594	-80.63259897609004	2855.626866671809	1215.9343372391622	-140.2040301240274	2785.811989506284	1252.9331845414447	-191.83014680199767	2646.410234454908	1330.4540055836815	-197.79367333770912	2901.563177378195	1204.9051121208813	-144.88649505251976	2964.65769899101	1199.5201632401902	-264.15392871298735	3053.248952838743	933.5061350204554	-309.02007770149265	3067.132336445849	794.6901595327075	-521.028846548528	3074.692654773083	804.8125599304518	-551.9833157588083	3057.193534238347	807.0278448838225	-581.9238984939075	3044.748209632074	805.3968487898236	-602.3267375196348	3034.1515650080796	801.3221208340402	-618.9526266099305	3077.072135247199	794.2198943386253	-553.7268152917811	3079.98034221148	782.3551364533832	-599.8350659565227	3068.0410645883508	774.8699737906093	-629.2047668633237	3052.939306555097	774.1458959898206	-642.7594050151181	3035.2597851960836	776.1971063581763	-650.8052436166037	3075.602960050541	786.0375161612793	-550.7749193479331	3077.648843101124	770.0389179603366	-594.1516136423253	3064.3999906412864	760.8309179208892	-625.6573509406938	3046.074329601136	759.4581966735356	-641.7502003673856	3026.6782224934936	761.4599435911629	-650.42725467786	3074.6314434714686	780.5284946508646	-547.5466320217021	3076.033169410923	761.3177955244797	-583.7174233720053	3064.2550329395604	752.2544398935377	-610.5547676842741	3046.456114160536	750.3793071411162	-625.7466495714416	3028.160890662917	752.0003329454523	-633.7484287970817	3072.3193372043515	774.76653389464	-542.2234963610625	3072.652535444586	753.4867093524713	-572.245864203033	3062.8544560080077	744.694289133756	-592.6060070123366	3049.694523533383	742.5841164033719	-603.1403098259074	3033.385874549403	743.5927977612461	-609.9139401573959	2859.304139695386	1200.3849898905225	-94.73655407455927	2807.236250179332	1128.8230916343864	7.56928366713206	2956.3210311976886	973.2139613899849	-177.46068463891274	3062.180088810775	860.5901435927386	-404.0742717219577	3092.2606638170537	871.5054961804001	-424.98038139578955	3132.55168860774	863.495103737284	-434.13016808859976	3159.666297611691	854.6954073375493	-441.12257844097917	3181.462946140115	844.6037868763451	-447.48266239833305	3090.8000796056767	861.9421624956525	-430.93283471443823	3134.660299007862	847.8047929899468	-466.44241971714865	3169.649292012229	832.7183464497508	-481.48518654224466	3191.219289881845	824.179353472182	-482.26939065060157	3208.9495712609055	817.678401301173	-477.13918054470514	3086.9180778356313	853.4234776004907	-430.9249933027255	3127.596966261039	835.0280508646679	-465.5584909524982	3165.1280075249224	817.4810146716629	-481.844847401694	3190.8400196059742	806.6585104676451	-482.7293702991792	3210.088777987828	799.2922453031834	-477.08604283104097	3083.013402296571	847.7952097717392	-430.12259769039713	3115.9550516711734	826.5095640714295	-460.78435888937287	3147.940357555559	810.1354769881201	-474.7926917516039	3172.355614742346	799.1227564272314	-475.5466033880359	3190.2713696987717	791.9248198070951	-470.1933930651198	3077.579515776652	841.4861435263372	-427.3080595727111	3104.3139858635914	818.1677113826349	-454.07389450946096	3128.6492696796095	803.4635863680331	-464.8651134123694	3145.8399557336215	794.660584368113	-465.20888675412453	3161.354785864888	787.841075571593	-460.34817725423005
